<svg width="534" height="612" viewBox="0 0 534 612" fill="none" xmlns="http://www.w3.org/2000/svg">
<path d="M533.387 68.6532C533.173 67.9553 532.809 67.3042 532.282 66.7782C531.35 65.8512 530.059 65.3772 528.746 65.4814C503.543 67.5439 478.549 69.5855 452.762 69.5855C427.959 69.5855 402.47 67.6948 375.533 62.1115C359.527 58.7938 342.954 54.1636 326.486 48.9344C304.626 41.9918 283.065 34.0438 263.346 26.7678C246.95 20.7156 231.762 15.1167 218.898 11.0278C193.663 3.01735 177.143 0.772583 163.794 0.772583C155.992 0.772583 149.378 1.54338 143.013 2.27775H143.008C141.185 2.4913 139.674 3.78817 139.19 5.56417L102.378 141.337L76.6285 165.113C75.467 166.186 74.9514 167.791 75.2796 169.343C80.3421 193.28 85.1337 216.181 74.8577 246.291C70.8837 257.937 64.6441 270.712 57.8363 284.619C46.9197 306.941 34.639 331.983 29.6337 358.035C28.2118 365.431 27.3837 372.868 26.9722 380.264C25.9305 398.832 27.493 417.316 28.9149 434.243C30.1701 449.196 31.3055 462.795 30.6441 474.649C28.941 504.983 15.3934 524.259 1.09207 544.488C-0.0746005 546.139 0.00351619 548.363 1.28998 549.926C19.8687 572.556 39.43 596.576 64.7433 606.248C73.5454 609.613 82.962 611.227 92.394 611.227C110.326 611.227 128.493 605.399 142.867 594.421C164.617 577.806 177.231 549.618 189.289 522.926C189.981 521.39 189.757 519.593 188.705 518.275C176.809 503.395 165.121 488.791 153.451 457.306C141.643 425.451 130.325 377.571 148.013 333.566C165.784 289.347 212.945 248.259 261.56 206.154L262.049 205.732C263.419 204.544 263.94 202.654 263.372 200.93C261.643 195.7 259.909 190.445 258.143 185.216C267.237 168.632 275.43 154.372 288.654 149.41C292.315 148.035 296.482 147.337 300.867 147.337C312.435 147.337 324.613 152.18 331.785 160.67C341.769 172.493 342.858 192.367 336.082 205.801C329.42 219.004 315.03 226.186 298.67 234.129C296.977 234.952 295.977 236.738 296.165 238.608C298.925 266.635 301.612 294.061 290.852 333.097C279.993 372.499 255.461 423.723 230.639 475.511C229.769 477.323 230.212 479.49 231.722 480.818C233.232 482.146 235.436 482.307 237.123 481.219C328.992 421.798 422.003 361.719 471.67 292.966C481.076 279.945 488.924 266.627 495.508 253.07C524.648 194.616 529.206 132.158 533.727 70.6696C533.769 69.9769 533.644 69.2893 533.383 68.654L533.387 68.6532Z" fill="white"/>
<path d="M142.933 2.3065L143.011 2.29608L142.939 2.30129L142.933 2.3065Z" fill="black"/>
</svg>
